<svg xmlns="http://www.w3.org/2000/svg" width="162" height="163" fill="none" viewBox="0 0 162 163"><g clip-path="url(#clip0_1278_3209)"><path fill="#F4F5F7" d="M80.2717 162.948C80.2717 162.948 153.701 164.293 161.11 104.915C168.519 45.5371 118.337 10.1203 81.6274 17.8763C44.9075 25.6322 45.9269 58.3585 29.7529 71.5163C13.5894 84.6741 -10.33 105.588 4.82458 135.277C19.9792 164.966 80.2717 162.938 80.2717 162.938V162.948Z"/><path fill="#FA0050" stroke="#100423" stroke-miterlimit="10" d="M28.239 147.573L26.4839 145.251C24.0562 142.077 22.9107 138.094 23.247 134.079C24.1193 123.717 26.9568 103.612 36.0159 95.2468C48.4801 83.781 64.9799 83.0979 64.9799 83.0979H71.7164L87.8799 84.4431C87.8799 84.4431 103.371 85.7883 112.472 96.592C121.563 107.385 130.317 127.626 130.317 127.626L122.908 150.905L28.2285 147.563L28.239 147.573Z"/><path fill="#9E1833" d="M55.0491 102.982C55.0491 102.982 54.7128 117.821 53.0312 123.223C61.7856 123.559 76.9402 127.605 81.6589 130.979C74.2498 125.913 54.8704 121.941 54.8704 121.941C54.8704 121.941 55.7217 108.037 55.0491 102.982V102.982Z"/><path fill="#EFD2C2" d="M81.2167 131.756C81.2167 131.756 80.8804 140.195 79.5352 142.213H87.9532L88.6258 132.765C88.6258 132.765 85.2523 131.42 81.2167 131.756V131.756Z"/><path fill="#9E1833" d="M97.5492 111.074C97.5492 111.074 98.2218 105.672 97.2129 102.982C98.8944 105.683 98.5581 111.421 98.5581 111.421L97.5492 111.084V111.074Z"/><path fill="#9E1833" d="M45.2957 129.959C45.2957 129.549 45.4638 129.181 45.6635 128.845C45.8632 128.509 46.1364 128.204 46.4727 127.973C46.7775 127.742 47.1453 127.532 47.5132 127.437C47.881 127.3 48.2909 127.269 48.6902 127.3C48.3539 127.532 48.0491 127.71 47.7444 127.91C47.4396 128.11 47.1768 128.32 46.8721 128.519C46.3361 128.929 45.8316 129.392 45.2852 129.97L45.2957 129.959Z"/><path fill="#9E1833" d="M41.9754 125.577C42.3117 125.177 42.753 124.873 43.1839 124.599C43.6569 124.368 44.1298 124.158 44.6658 124.063C45.1702 123.958 45.7062 123.927 46.2527 124.032C46.7887 124.095 47.2616 124.305 47.703 124.568C47.167 124.568 46.6941 124.536 46.2212 124.568C45.7482 124.599 45.2753 124.673 44.8024 124.736C44.3295 124.841 43.8565 124.936 43.3836 125.104C42.9422 125.24 42.4693 125.409 41.9648 125.577H41.9754Z"/><path fill="#EFD2C2" stroke="#100423" stroke-miterlimit="10" d="M93.1149 68.5212L92.6104 50.1717L91.9378 44.4336H75.438L66.6837 50.8443L67.3248 55.7732C67.02 55.6366 66.6837 55.5736 66.3474 55.5736C64.4977 55.5736 62.9844 57.5283 62.9844 59.956C62.9844 62.3837 64.4977 64.3384 66.3474 64.3384C67.0936 64.3384 67.7977 64.0021 68.3337 63.4977C68.3337 63.4977 68.3652 72.1049 68.3652 75.8147C68.3652 79.5245 65.6748 82.898 65.6748 82.898C65.6748 82.898 70.0572 90.654 76.1106 90.654C82.1641 90.654 86.557 88.6257 88.5748 84.2433C87.2296 82.2149 86.557 77.1599 86.557 77.1599C90.498 76.1825 93.2305 72.6093 93.1254 68.5212H93.1149Z"/><path fill="#E2BEBC" d="M86.03 77.5698C86.03 77.5698 83.0033 78.2424 80.6387 78.2424C83.3291 78.915 86.1666 78.3475 86.1666 78.3475L86.03 77.5698V77.5698Z"/><path fill="#291A45" d="M75.3317 47.555C75.3317 47.555 78.0221 50.2559 81.3956 50.2559C90.7279 50.2559 90.4862 52.6205 96.2139 52.6205C96.2139 52.6205 101.269 52.9568 101.269 47.555C101.269 42.1532 96.5502 41.4806 93.5235 42.8363C95.5413 40.808 94.8687 38.4539 90.4967 39.4628C92.5145 36.7618 86.4506 35.0803 81.0698 39.1265C75.6785 43.1726 71.9792 40.4717 67.5967 43.8452C63.2143 47.2187 63.6872 52.6205 64.9694 55.8259C66.5878 54.9852 68.2693 56.6036 68.2693 57.6861V61.2383C68.2693 61.6797 68.6582 62.0055 69.0891 61.9319L69.6986 61.8268C70.0349 61.7742 70.2871 61.48 70.2871 61.1332V56.3304C70.2871 56.3304 73.3139 54.9852 74.3333 52.9568C75.3422 50.9285 75.3422 47.555 75.3422 47.555H75.3317Z"/><path fill="#291A45" d="M84.1283 64.6538C84.1283 64.6538 82.4153 63.3506 79.7459 64.7694C77.087 66.1882 74.0918 67.6175 74.0918 67.6175C74.0918 67.6175 79.1784 68.8366 83.834 66.3563C86.2302 67.9853 88.269 68.6054 91.6215 67.8487C89.2254 66.556 87.1235 63.235 84.1283 64.6643V64.6538Z"/><path fill="#DFE8F9" stroke="#100423" stroke-miterlimit="10" d="M145.683 112.64L138.547 143.916C138.211 145.366 136.928 146.375 135.447 146.375H85.0645L86.3151 140.973L92.915 112.198C93.2513 110.685 94.5965 109.603 96.1834 109.603H143.266C144.853 109.571 146.03 111.084 145.693 112.64H145.683Z"/><path fill="#AFBDD7" stroke="#100423" stroke-miterlimit="10" d="M86.7129 140.542L86.1559 143.243L85.5989 146.07H59.6406V141.824C59.6406 141.12 60.2081 140.542 60.9228 140.542H86.7024H86.7129Z"/><path fill="#AFBDD7" d="M119.029 129.738C119.387 128.099 118.64 126.544 117.369 126.27C116.097 125.997 114.773 127.09 114.416 128.73C114.058 130.369 114.804 131.924 116.076 132.198C117.348 132.471 118.672 131.378 119.029 129.738Z"/><path fill="#291A45" d="M147.09 146.06H28.3233C27.9344 146.06 27.6191 146.375 27.6191 146.764V151.02C27.6191 151.409 27.9344 151.724 28.3233 151.724H147.09C147.479 151.724 147.794 151.409 147.794 151.02V146.764C147.794 146.375 147.479 146.06 147.09 146.06Z"/></g><circle cx="80.923" cy="21.019" r="21.019" fill="#D3ECEF"/><path fill="#100423" d="M77.1801 12.9567V15.9567H80.1081V27.3567H83.5881V12.9567H77.1801Z"/><defs><clipPath id="clip0_1278_3209"><rect width="161.845" height="146.165" fill="#fff" transform="translate(0 16.8149)"/></clipPath></defs></svg>