<svg width="158" height="163" viewBox="0 0 158 163" fill="none" xmlns="http://www.w3.org/2000/svg">
<g clip-path="url(#clip0_1278_3210)">
<path d="M108.984 42.4574C86.5997 14.7035 37.239 9.16132 12.2831 29.5149C0.993575 38.7302 -4.0192 66.0304 3.74844 88.1665C10.9219 108.596 -1.36156 113.49 9.16094 134.956C9.43102 132.558 9.80914 130.105 10.3385 127.588C12.6504 116.569 16.5937 108.79 19.8347 103.864C25.6901 93.0497 37.8007 88.4582 37.8007 88.4582L57.1604 87.4859C57.1604 87.4859 65.2305 87.1618 73.614 89.4305C81.9974 91.6992 91.0399 100.752 95.869 100.752C100.698 100.752 113.608 77.7845 113.608 77.7845C113.608 77.7845 119.42 78.4327 122.64 81.987C121.667 87.4859 110.054 115.315 105.225 119.518C100.385 123.72 82.6456 118.222 82.6456 118.222C85.703 131.909 81.2844 146.246 81.7813 161.532C98.4294 159.437 114.732 153.657 126.702 143.804C159.663 116.677 131.369 70.2113 108.973 42.4574H108.984Z" fill="#F4F5F7"/>
<path d="M152.705 64.8528H83.8335C81.6944 64.8528 79.9551 63.1458 79.9551 61.0608C79.9551 58.9757 81.7052 57.2688 83.8335 57.2688H152.705C154.844 57.2688 156.584 58.9757 156.584 61.0608C156.584 63.1458 154.833 64.8528 152.705 64.8528Z" fill="#DFE8F9" stroke="#100423" stroke-miterlimit="10"/>
<path d="M123.536 68.8069C127.922 68.8069 131.477 65.2526 131.477 60.8772C131.477 56.5018 127.922 52.9475 123.536 52.9475C119.15 52.9475 115.596 56.5018 115.596 60.8772C115.596 65.2526 119.15 68.8069 123.536 68.8069Z" fill="#AFBDD7" stroke="#100423" stroke-miterlimit="10"/>
<path d="M38.5997 75.7534C38.5997 75.7534 38.5997 86.3947 37.6166 88.9659C41.2249 90.8998 46.1513 91.548 49.1006 91.2239C52.0499 90.8998 57.3004 88.0044 57.3004 88.0044C57.3004 88.0044 54.3511 80.9174 54.3511 78.0113L55.2369 77.8493C60.2929 76.8553 63.7716 72.2099 63.2098 67.1755L60.9087 46.4546L35.6504 53.8657L38.5997 75.7534V75.7534Z" fill="#EFD2C2" stroke="#100423" stroke-miterlimit="10"/>
<path d="M62.7021 45.439C62.0431 39.5944 59.5043 37.5201 57.873 37.8442C56.2417 38.1683 52.4929 40.8583 48.2472 40.8583C44.0015 40.8583 39.0967 39.886 35.4992 43.462C34.2244 44.726 33.9327 46.0656 34.0947 47.2324C33.0792 48.0426 31.2859 49.7387 30.5944 52.2343C29.6113 55.8102 30.9186 61.3308 33.2089 64.9067C35.4992 68.4826 35.8233 74.6514 38.1136 76.2827C40.4039 77.9032 49.2303 69.779 49.8893 65.5549C50.5483 61.3308 53.4868 62.6272 53.4868 62.6272L53.7461 66.6244C53.7785 66.981 54.1999 67.1106 54.4375 66.8837L55.3234 66.0086C55.3882 65.9438 55.4531 65.8142 55.4531 65.717L55.129 56.7826C55.129 56.7826 63.3827 51.2944 62.7237 45.439H62.7021Z" fill="#291A45" stroke="#100423" stroke-miterlimit="10"/>
<path d="M74.543 115.596L82.4511 118.016C82.8076 118.362 83.2397 121.408 83.5314 123.893C82.6671 120.847 77.0602 116.633 74.543 115.596Z" fill="#9E1833"/>
<path d="M152.705 86.4595H83.8335C81.6944 86.4595 79.9551 84.7525 79.9551 82.6675C79.9551 80.5824 81.7052 78.8755 83.8335 78.8755H152.705C154.844 78.8755 156.584 80.5824 156.584 82.6675C156.584 84.7525 154.833 86.4595 152.705 86.4595Z" fill="#DFE8F9" stroke="#100423" stroke-miterlimit="10"/>
<path d="M139.741 90.4136C144.127 90.4136 147.682 86.8593 147.682 82.4839C147.682 78.1085 144.127 74.5542 139.741 74.5542C135.355 74.5542 131.801 78.1085 131.801 82.4839C131.801 86.8593 135.355 90.4136 139.741 90.4136Z" fill="#AFBDD7" stroke="#100423" stroke-miterlimit="10"/>
<path d="M152.705 109.827H83.8335C81.6944 109.827 79.9551 107.969 79.9551 105.689C79.9551 103.41 81.7052 101.552 83.8335 101.552H152.705C154.844 101.552 156.584 103.41 156.584 105.689C156.584 107.969 154.833 109.827 152.705 109.827Z" fill="#DFE8F9" stroke="#100423" stroke-miterlimit="10"/>
<path d="M112.733 113.101C117.12 113.101 120.674 109.546 120.674 105.16C120.674 100.774 117.12 97.2197 112.733 97.2197C108.347 97.2197 104.793 100.774 104.793 105.16C104.793 109.546 108.347 113.101 112.733 113.101Z" fill="#AFBDD7" stroke="#100423" stroke-miterlimit="10"/>
<path d="M13.6985 142.788C14.3683 130.257 15.6323 115.413 17.9874 108.153C18.4844 106.619 19.1218 105.193 19.8456 103.853C16.6046 108.779 12.6614 116.558 10.3494 127.577C9.82008 130.084 9.44196 132.547 9.17188 134.945C10.0469 136.739 11.0733 138.629 12.2941 140.671C12.7262 141.395 13.2015 142.086 13.6985 142.778V142.788Z" fill="#9E1833" stroke="#100423" stroke-miterlimit="10"/>
<path d="M113.62 77.7844C113.62 77.7844 100.71 100.752 95.8806 100.752C91.0515 100.752 82.0091 91.6884 73.6256 89.4305C65.2422 87.1618 57.1721 87.4859 57.1721 87.4859L37.8124 88.4582C37.8124 88.4582 25.7018 93.0496 19.8464 103.864C19.1225 105.203 18.4851 106.629 17.9882 108.164C15.633 115.423 14.369 130.257 13.6992 142.799C15.2873 144.971 17.2319 146.98 19.4682 148.806C33.1129 159.923 57.8095 164.557 81.7822 161.543C81.2744 146.256 85.7038 131.92 82.6465 118.232C82.6465 118.232 100.386 123.731 105.226 119.529C110.065 115.326 121.679 87.4967 122.641 81.9977C119.41 78.4434 113.609 77.7952 113.609 77.7952L113.62 77.7844Z" fill="#FA0050" stroke="#100423" stroke-miterlimit="10"/>
<path d="M113.437 77.7844C113.437 77.7844 113.447 67.1863 116.127 63.9993C119.098 59.6239 122.479 58.9865 123.808 59.6239C125.147 60.2613 122.803 65.9979 123.473 66.9486C124.143 67.8993 126.898 67.1647 126.898 67.1647C126.898 67.1647 128.162 72.6744 125.817 76.1855C123.473 79.6858 121.129 82.8728 121.129 82.8728L113.426 77.7736L113.437 77.7844Z" fill="#EFD2C2" stroke="#100423" stroke-miterlimit="10"/>
</g>
<circle cx="78.8646" cy="21.6068" r="21.6068" fill="#D3ECEF"/>
<path d="M73.5089 25.0423V27.5623H84.1889V24.5623H79.0769L82.4129 21.4663C83.6369 20.3383 84.0929 19.0903 84.0929 17.4823C84.0929 15.0343 82.0529 12.8503 78.3809 12.8503C75.0449 12.8503 73.1249 14.7703 73.1249 14.7703L74.9489 17.5543C75.9089 16.7863 76.7249 16.2583 77.9009 16.2583C79.1489 16.2583 79.8689 17.0503 79.8689 17.9623C79.8689 18.7783 79.6289 19.2583 78.8609 19.9783L73.5089 25.0423Z" fill="#100423"/>
<defs>
<clipPath id="clip0_1278_3210">
<rect width="157.125" height="145.695" fill="white" transform="translate(0 17.2854)"/>
</clipPath>
</defs>
</svg>
