<svg width="154" height="163" viewBox="0 0 154 163" fill="none" xmlns="http://www.w3.org/2000/svg">
<g clip-path="url(#clip0_1278_3212)">
<path d="M72.7163 162.951C72.7163 162.951 139.235 164.176 145.946 110.092C152.658 56.0081 107.199 23.7491 73.9444 30.8136C40.6805 37.878 41.604 67.6864 26.9522 79.671C12.31 91.6557 -9.35812 110.705 4.37013 137.747C18.0984 164.789 72.7163 162.941 72.7163 162.941V162.951Z" fill="#F4F5F7"/>
<path d="M25.5821 148.947L23.9922 146.832C21.793 143.941 20.7553 140.313 21.0599 136.656C21.8501 127.218 24.4206 108.906 32.6271 101.286C43.9181 90.8427 58.865 90.2205 58.865 90.2205H64.9675L79.6097 91.4457C79.6097 91.4457 93.6426 92.671 101.887 102.511C110.122 112.342 118.053 130.779 118.053 130.779L111.341 151.982L25.5726 148.938L25.5821 148.947Z" fill="#FA0050" stroke="#100423" stroke-miterlimit="10"/>
<path d="M49.867 108.331C49.867 108.331 49.5623 121.848 48.0391 126.768C55.9695 127.074 69.6977 130.759 73.9723 133.832C67.2605 129.218 49.7051 125.6 49.7051 125.6C49.7051 125.6 50.4763 112.936 49.867 108.331V108.331Z" fill="#9E1833"/>
<path d="M73.574 134.541C73.574 134.541 73.2694 142.227 72.0508 144.065H79.6765L80.2858 135.46C80.2858 135.46 77.2298 134.234 73.574 134.541V134.541Z" fill="#EFD2C2"/>
<path d="M88.3671 115.702C88.3671 115.702 88.9764 110.782 88.0625 108.331C89.5857 110.791 89.2811 116.018 89.2811 116.018L88.3671 115.712V115.702Z" fill="#9E1833"/>
<path d="M41.033 132.904C41.033 132.53 41.1853 132.195 41.3662 131.889C41.5471 131.583 41.7946 131.305 42.0992 131.095C42.3753 130.884 42.7085 130.693 43.0417 130.606C43.3749 130.482 43.7462 130.453 44.108 130.482C43.8034 130.693 43.5273 130.855 43.2512 131.037C42.9751 131.219 42.7371 131.41 42.461 131.592C41.9755 131.966 41.5185 132.387 41.0234 132.913L41.033 132.904Z" fill="#9E1833"/>
<path d="M38.0251 128.912C38.3298 128.548 38.7296 128.271 39.12 128.022C39.5484 127.811 39.9768 127.62 40.4623 127.534C40.9193 127.438 41.4048 127.409 41.8999 127.505C42.3854 127.562 42.8138 127.754 43.2137 127.993C42.7282 127.993 42.2998 127.964 41.8713 127.993C41.4429 128.022 41.0145 128.089 40.5861 128.146C40.1577 128.242 39.7293 128.328 39.3009 128.481C38.901 128.606 38.4726 128.759 38.0156 128.912H38.0251Z" fill="#9E1833"/>
<path d="M84.3493 76.9433L83.8924 60.2299L83.2831 55.0034H68.3362L60.4058 60.8426L60.9866 65.332C60.7105 65.2076 60.4058 65.1502 60.1012 65.1502C58.4256 65.1502 57.0547 66.9306 57.0547 69.1418C57.0547 71.3531 58.4256 73.1335 60.1012 73.1335C60.7771 73.1335 61.415 72.8272 61.9005 72.3677C61.9005 72.3677 61.9291 80.2075 61.9291 83.5866C61.9291 86.9656 59.4919 90.0384 59.4919 90.0384C59.4919 90.0384 63.4618 97.1028 68.9455 97.1028C74.4292 97.1028 78.4087 95.2553 80.2366 91.2637C79.018 89.4162 78.4087 84.8119 78.4087 84.8119C81.9788 83.9216 84.4541 80.667 84.3589 76.9433H84.3493Z" fill="#EFD2C2" stroke="#100423" stroke-miterlimit="10"/>
<path d="M77.9327 85.1853C77.9327 85.1853 75.1909 85.7979 73.0488 85.7979C75.486 86.4106 78.0565 85.8937 78.0565 85.8937L77.9327 85.1853V85.1853Z" fill="#E2BEBC"/>
<path d="M68.2412 57.8466C68.2412 57.8466 70.6784 60.3067 73.7344 60.3067C82.1885 60.3067 81.9695 62.4605 87.1581 62.4605C87.1581 62.4605 91.7373 62.7668 91.7373 57.8466C91.7373 52.9264 87.4627 52.3137 84.7209 53.5486C86.5488 51.7011 85.9395 49.5569 81.979 50.4758C83.8069 48.0157 78.3137 46.4842 73.4393 50.1695C68.5554 53.8549 65.2043 51.3948 61.2343 54.4675C57.2644 57.5403 57.6928 62.4605 58.8542 65.3801C60.3204 64.6143 61.8436 66.0884 61.8436 67.0744V70.3098C61.8436 70.7119 62.1959 71.0086 62.5862 70.9416L63.1384 70.8459C63.443 70.798 63.6715 70.53 63.6715 70.2141V65.8395C63.6715 65.8395 66.4134 64.6143 67.3368 62.7668C68.2508 60.9193 68.2508 57.8466 68.2508 57.8466H68.2412Z" fill="#291A45"/>
<path d="M76.211 73.4208C76.211 73.4208 74.6592 72.2338 72.2411 73.5261C69.8324 74.8183 67.1191 76.1202 67.1191 76.1202C67.1191 76.1202 71.727 77.2306 75.9444 74.9715C78.1151 76.4552 79.962 77.02 82.999 76.3308C80.8284 75.1534 78.9243 72.1285 76.211 73.4303V73.4208Z" fill="#291A45"/>
<path d="M131.972 117.128L125.507 145.616C125.203 146.937 124.041 147.856 122.699 147.856H77.0586L78.1915 142.936L84.1702 116.726C84.4749 115.348 85.6935 114.362 87.1311 114.362H129.782C131.22 114.333 132.286 115.712 131.981 117.128H131.972Z" fill="#DFE8F9" stroke="#100423" stroke-miterlimit="10"/>
<path d="M78.5516 142.543L78.047 145.003L77.5424 147.578H54.0273V143.711C54.0273 143.069 54.5414 142.543 55.1888 142.543H78.5421H78.5516Z" fill="#AFBDD7" stroke="#100423" stroke-miterlimit="10"/>
<path d="M107.827 132.703C108.15 131.209 107.475 129.793 106.323 129.544C105.171 129.295 103.971 130.29 103.647 131.784C103.324 133.277 104 134.694 105.152 134.943C106.304 135.191 107.503 134.196 107.827 132.703Z" fill="#AFBDD7"/>
<path d="M133.246 147.569H25.6574C25.3051 147.569 25.0195 147.856 25.0195 148.21V152.087C25.0195 152.441 25.3051 152.728 25.6574 152.728H133.246C133.598 152.728 133.884 152.441 133.884 152.087V148.21C133.884 147.856 133.598 147.569 133.246 147.569Z" fill="#291A45"/>
<path d="M77.3705 78.5994C77.3705 79.9778 76.2566 81.0882 74.8952 81.0882C73.5338 81.0882 72.4199 79.9682 72.4199 78.5994H77.38H77.3705Z" fill="white" stroke="#100423" stroke-miterlimit="10"/>
<path d="M122.232 136.091C139.073 136.091 152.725 122.364 152.725 105.431C152.725 88.4976 139.073 74.7705 122.232 74.7705C105.391 74.7705 91.7383 88.4976 91.7383 105.431C91.7383 122.364 105.391 136.091 122.232 136.091Z" fill="#08AF7F" stroke="#100423" stroke-miterlimit="10"/>
<path d="M117.28 119.799L106.303 106.915L110.634 103.172L117.908 111.71L136.044 96.0786L139.757 100.444L121.621 116.066L117.28 119.799Z" fill="white" stroke="#100423" stroke-miterlimit="10"/>
</g>
<circle cx="77.0709" cy="19.0299" r="19.0299" fill="#D3ECEF"/>
<path d="M70.5558 21.1164V23.6844H77.7798V26.6604H81.2598V23.6844H83.3478V20.7084H81.2598V12.2604H77.9238L70.5558 21.1164ZM74.7078 20.7084V20.5884C74.7078 20.5884 74.9478 20.3964 75.2598 20.0124L77.7798 16.8924V20.7084H74.7078Z" fill="#100423"/>
<defs>
<clipPath id="clip0_1278_3212">
<rect width="153.191" height="133.133" fill="white" transform="translate(0 29.8472)"/>
</clipPath>
</defs>
</svg>
